PathFileType	4	(X/Y/Z)	C:/Users/beibeiliu/ov580/test_trc/User3\sequence.4_training_dense_right.trc
DataRate	CameraRate	NumFrames	NumMarkers	Units	OrigDataRate	OrigDataStartFrame	OrigNumFrames
120	120	18	19	mm	120	1	93
Frame#	Time	ThumbCMC			ThumbMCP			ThumbIP			ThumbTip			IndexMCP			IndexPIP			IndexTip			MiddleMCP			MiddlePIP			MiddleTip			RingMCP			RingPIP			RingTip			PinkyMCP			PinkyPIP			PinkyTip			BackHand1			BackHand2			BackHand3	
		X0	Y0	Z0	X1	Y1	Z1	X2	Y2	Z2	X3	Y3	Z3	X4	Y4	Z4	X5	Y5	Z5	X6	Y6	Z6	X7	Y7	Z7	X8	Y8	Z8	X9	Y9	Z9	X10	Y10	Z10	X11	Y11	Z11	X12	Y12	Z12	X13	Y13	Z13	X14	Y14	Z14	X15	Y15	Z15	X16	Y16	Z16	X17	Y17	Z17	X18	Y18	Z18	
0	0	43.6043	-20.5455	-2.22668	20.1974	-26.1911	-26.3218	11.5881	-33.4239	-55.7248	6.14363	-40.1295	-75.551	39.0082	-19.2192	-81.4261	33.9903	-24.428	-109.119	28.1818	-24.6172	-129.368	58.4843	-18.8105	-92.9735	48.0532	-22.812	-116.293	43.0276	-23.7241	-146.314	73.6643	-24.4242	-88.5821	67.8559	-26.122	-111.654	64.8182	-26.2529	-137.935	91.503	-29.6975	-75.1367	88.1088	-30.5426	-96.6411	86.3544	-29.8825	-116.824	87.8912	-6.95257	-42.8234	95.3697	3.39408	-14.5438	60.244	1.3044	-21.395	
1	0.00833333	41.5013	-18.3922	-7.26943	24.9926	-25.0685	-25.7065	13.9563	-31.4838	-57.3553	3.17158	-39.2355	-73.3983	39.5968	-18.3156	-81.8629	32.7359	-21.1333	-109.033	32.898	-23.8233	-133.328	55.7834	-17.4476	-91.6416	47.4681	-21.4937	-120.551	43.2333	-21.4825	-148.417	71.2417	-23.0055	-90.3283	73.4109	-25.6794	-110.274	64.2441	-25.2076	-137.25	91.7163	-29.3357	-74.4287	88.1794	-29.5988	-97.998	81.2889	-29.7997	-118.561	88.2181	-6.25964	-42.9967	96.2356	3.44251	-15.2983	59.6754	3.38757	-24.9915	
2	0.0166667	41.0523	-18.2213	-1.68492	25.622	-24.7596	-27.9424	12.4778	-30.9312	-56.4046	6.2061	-37.396	-74.694	40.2971	-17.7727	-82.0015	32.4618	-20.3196	-105.026	34.1063	-22.5803	-129.837	55.2543	-17.2073	-96.2731	47.9193	-20.4414	-119.864	44.1764	-21.0166	-149.92	74.7778	-22.666	-89.5119	69.9037	-24.998	-108.757	65.8211	-25.6337	-136.128	91.3184	-27.295	-75.1526	89.5158	-30.0539	-95.3766	83.9357	-28.9262	-114.91	88.9444	-5.90723	-43.8675	98.6804	3.72764	-18.2614	62.0895	4.18466	-23.6607	
3	0.025	40.0656	-17.8068	-4.16616	23.2935	-24.4873	-25.2171	13.8434	-30.4273	-57.5181	4.53274	-37.9247	-75.4592	38.4463	-16.9434	-79.9276	32.9313	-20.782	-109.044	35.4598	-22.7502	-131.276	60.0234	-16.7443	-94.6054	52.1782	-20.5344	-121.343	47.3599	-22.0945	-148.442	73.1487	-21.4673	-90.4037	70.5822	-24.0742	-112.696	64.8946	-25.897	-136.161	92.2217	-27.3009	-73.7299	89.5796	-29.7663	-92.7687	84.0669	-28.8335	-118.812	86.4508	-3.60354	-43.3757	97.9656	2.75252	-14.5913	57.8506	2.9852	-25.7359	
4	0.0333333	38.7628	-18.4438	-4.65827	24.2817	-25.5632	-25.676	13.4553	-31.6351	-55.7699	6.43376	-39.3936	-76.2086	40.0435	-18.7357	-83.0835	32.6758	-21.3893	-105.299	35.4218	-25.0106	-129.795	56.0298	-17.5574	-89.8568	49.9875	-22.637	-120.074	44.512	-22.6179	-145.315	74.1822	-24.0488	-84.7821	67.8289	-25.9776	-111.882	65.0308	-26.4028	-137.037	94.8078	-29.9895	-71.6293	88.0314	-30.1127	-96.4664	84.0241	-31.4918	-118.473	87.699	-5.71355	-39.5551	100.542	2.68289	-14.958	63.7467	1.53373	-22.5147	
5	0.0416667	39.4741	-19.3177	-6.00797	26.3363	-26.0237	-26.4214	15.0894	-32.9511	-51.6556	7.67903	-39.8096	-73.0804	37.2258	-19.4848	-81.7041	37.022	-23.2912	-107.885	29.7626	-24.1641	-133.018	58.5614	-18.5257	-90.838	53.1361	-22.6317	-117.242	44.2803	-23.6288	-143.859	72.3964	-24.2606	-88.182	72.0089	-26.1919	-109.825	64.2928	-28.294	-133.024	94.4977	-29.8143	-75.6472	88.2398	-30.9703	-92.7693	85.4883	-30.3771	-120.292	91.3699	-7.92799	-43.2336	97.4401	0.657831	-17.1369	62.7745	0.351537	-26.4872	
6	0.05	41.3669	-19.5111	-5.59496	22.1666	-24.4501	-25.4008	10.1281	-31.1197	-55.0413	3.01818	-39.3074	-72.7291	38.046	-18.921	-82.1335	31.4097	-21.6101	-108.419	34.668	-24.2197	-131.816	54.8985	-17.1919	-91.7429	49.8493	-22.1158	-117.17	43.5945	-23.3439	-146.233	75.7056	-23.2148	-89.4611	72.173	-25.7522	-110.533	66.8994	-27.231	-134.113	92.7338	-29.71	-72.3351	90.3154	-31.5312	-96.984	84.6459	-31.1338	-120.836	87.9309	-4.98397	-40.3457	95.071	2.02612	-14.7398	60.0915	0.872338	-25.4245	
7	0.0583333	39.9848	-18.369	-1.38833	22.0529	-23.2276	-25.8786	10.7037	-29.7685	-53.9729	2.3562	-36.4325	-74.4649	35.53	-16.5344	-82.6148	33.8845	-21.3598	-110.232	31.6662	-22.1444	-134.711	55.9658	-17.3188	-93.9701	49.1487	-21.3485	-118.922	45.151	-21.8276	-150.846	75.4238	-23.0823	-90.4012	72.1195	-24.7692	-112.152	63.4964	-25.1167	-133.322	93.0277	-28.4289	-71.6784	88.3531	-30.2287	-92.674	86.0119	-28.8335	-118.401	85.6843	-3.4821	-44.7815	95.5352	4.45514	-13.5475	57.8529	3.69359	-22.4372	
8	0.0666667	41.4992	-18.3151	-6.92589	21.5205	-23.1807	-25.8641	12.2227	-29.4457	-52.4315	2.41985	-36.7057	-72.4985	37.1967	-17.4835	-83.9971	32.298	-19.7512	-108.861	32.68	-21.8974	-130.338	56.6068	-16.6304	-93.1579	49.5028	-21.4377	-121.504	43.2694	-22.1454	-144.706	72.9877	-21.663	-85.9663	69.2603	-24.8163	-108.578	64.1926	-24.318	-136.687	92.8583	-27.7759	-74.1703	85.7248	-30.3775	-94.8924	87.4511	-30.5108	-116.523	89.8179	-3.45861	-44.3997	97.5282	3.22677	-17.308	61.0391	2.75671	-22.5756	
9	0.075	39.0232	-17.9984	-1.82319	20.5727	-24.4876	-26.4309	10.0978	-30.1132	-52.5314	1.45209	-36.6191	-74.1757	38.7307	-17.9065	-83.7488	30.0449	-20.9691	-105.268	30.8781	-23.6231	-133.071	52.2914	-16.8052	-95.0431	48.3497	-21.9967	-120.959	41.4499	-21.9018	-144.999	73.3093	-22.3638	-86.3063	67.5654	-25.2688	-108.242	62.3153	-25.4874	-134.536	94.1648	-28.4919	-75.2433	86.689	-30.3398	-94.7574	81.9847	-28.4589	-115.573	84.8215	-5.9202	-40.3489	96.4612	1.42048	-18.0676	62.4046	3.65643	-22.6204	
10	0.0833333	41.1155	-18.4143	-5.6708	18.8163	-23.7378	-28.4632	6.79443	-31.5007	-54.2569	1.60415	-38.4003	-75.5076	36.2017	-17.73	-80.3451	29.6787	-21.6804	-109.506	33.4422	-23.5544	-130.586	54.6067	-18.5095	-94.8065	51.1457	-22.1779	-117.852	43.1343	-23.4764	-146.115	73.3383	-23.1634	-90.5017	68.3787	-25.2258	-109.795	62.5097	-26.2366	-134.947	94.0586	-29.9286	-75.9965	85.8891	-31.113	-94.7825	80.8774	-28.8201	-119.177	85.4283	-5.71822	-39.385	95.9999	3.49956	-14.8626	61.2853	1.02869	-22.0284	
11	0.0916667	40.0162	-19.676	-1.48486	24.0842	-25.1192	-26.6168	8.93507	-31.7589	-57.4504	-0.742638	-38.6644	-76.7326	34.327	-18.7199	-82.9466	31.897	-22.1666	-108.868	30.757	-24.5448	-133.44	52.3133	-18.4129	-91.3517	48.7032	-22.5456	-119.178	39.2981	-22.8242	-145.908	72.5556	-22.8098	-89.6435	69.0924	-25.8686	-110.182	60.5238	-27.1387	-137.111	87.7638	-29.0632	-76.6927	85.2712	-30.7605	-98.1559	82.5365	-30.7366	-119.029	86.2583	-6.84928	-45.09	94.9455	1.89313	-16.3523	56.3716	0.414548	-25.3315	
12	0.1	37.4686	-19.7869	-2.00313	22.8192	-26.2061	-26.7768	9.83713	-33.4377	-51.9471	0.394028	-39.3214	-71.9473	33.5703	-18.7413	-84.9295	31.9998	-23.5837	-108.166	27.5301	-25.1129	-128.672	50.8301	-19.3932	-95.8828	49.6264	-25.0347	-121.452	41.8674	-25.2697	-146.484	70.6736	-24.422	-90.1592	69.1231	-27.3275	-113.36	59.0829	-27.4346	-135.783	90.1927	-29.5198	-76.9614	83.8024	-31.9419	-95.6418	79.1355	-32.0719	-117.491	84.7365	-5.41145	-43.541	94.3938	0.0190619	-16.6509	57.6114	2.46238	-22.1701	
13	0.108333	41.5247	-20.6145	-5.17021	22.1067	-26.9724	-27.1133	11.66	-32.7209	-53.3001	0.690562	-40.1413	-70.1702	37.8368	-20.7092	-81.5932	33.6832	-24.2089	-107.445	29.6034	-25.6505	-133.722	57.2896	-20.3045	-92.1558	50.6298	-25.2669	-116.993	42.9384	-25.6215	-148.56	73.6714	-26.0858	-91.423	64.7788	-28.4611	-108.982	62.7971	-29.3115	-132.499	93.6219	-31.4803	-74.1039	85.646	-33.8131	-97.396	79.8557	-33.3065	-114.125	85.8701	-6.9859	-39.949	95.1371	-0.607865	-17.5398	57.7812	2.07068	-21.7664	
14	0.116667	39.6466	-20.7073	-4.50066	18.9858	-26.9673	-24.6691	10.4507	-33.0779	-52.8074	-0.379293	-39.2937	-75.2844	35.5835	-19.6822	-84.8338	33.7912	-25.028	-109.352	28.8493	-25.7253	-130.669	52.5659	-20.8927	-92.5242	51.11	-25.6409	-116.004	41.7508	-26.2162	-146.858	74.879	-26.3856	-89.4353	67.1625	-28.0556	-112.753	60.4022	-29.1086	-136.541	92.2071	-32.2941	-73.0101	89.9547	-33.1493	-94.5206	80.9329	-32.9765	-118.124	89.0359	-8.59999	-41.565	94.0624	0.214179	-14.9192	58.1515	-1.03895	-24.7118	
15	0.125	37.8904	-19.2322	-4.48601	21.214	-26.5887	-25.5657	8.78126	-32.6675	-52.0174	1.19074	-39.4684	-71.5082	34.8701	-19.0651	-83.6167	30.5201	-24.1637	-109.234	27.4634	-24.6763	-130.95	53.1688	-20.917	-94.6721	45.5659	-24.8871	-119.137	39.4101	-25.2215	-144.673	69.7768	-25.0476	-88.8003	70.9973	-27.2895	-109.075	63.0232	-28.3573	-135.594	92.2595	-31.2736	-73.7414	88.437	-33.1126	-94.5192	81.083	-32.433	-116.564	90.5138	-7.00492	-41.0037	97.4998	0.280721	-17.8123	59.4494	-0.0788525	-21.3295	
16	0.133333	41.4218	-19.1973	-4.19842	19.7561	-24.7003	-26.6009	11.5332	-30.8913	-55.8363	0.816374	-38.2539	-74.3442	34.8771	-17.9928	-84.6049	29.0435	-22.1632	-107.834	31.0117	-24.081	-133.345	52.8456	-18.0624	-91.5638	46.3536	-23.6277	-116.426	44.1427	-25.1357	-144.846	71.5337	-23.6497	-84.7793	66.9603	-26.2334	-111.471	60.4893	-26.4293	-136.417	93.5045	-30.2606	-72.1407	84.7922	-32.4702	-96.5787	79.2792	-31.7628	-118.013	88.4927	-5.01649	-40.3328	97.9281	2.60834	-14.6181	60.6282	1.1397	-20.8279	
17	0.141667	37.8759	-17.1831	-5.18833	22.4656	-24.6876	-29.5248	7.7498	-31.1434	-52.5607	-0.200788	-37.2844	-70.9202	37.1113	-17.4532	-85.0312	32.2881	-21.3502	-108.385	30.5964	-23.6334	-130.847	54.6219	-18.704	-94.9975	47.8794	-22.9142	-120.308	39.3349	-22.8588	-146.327	69.2678	-22.4216	-87.9467	68.1818	-25.7892	-114.008	59.6195	-26.4164	-134.325	88.9048	-28.9868	-75.0131	84.7638	-31.7664	-97.1897	84.0926	-29.8781	-117.209	89.0675	-4.46211	-41.2494	97.3666	3.54304	-13.0096	57.111	2.36166	-20.6607	
